<svg width="20" height="18" viewBox="0 0 20 18" version="1.1" xmlns="http://www.w3.org/2000/svg" xmlns:xlink="http://www.w3.org/1999/xlink">
<title>briefcase</title>
<desc>Created using Figma</desc>
<g id="Canvas" transform="translate(-5 284)">
<g id="briefcase">
<g id="Vector">
<use xlink:href="#path0_stroke" transform="translate(6 -279.444)" fill="#333333"/>
</g>
<g id="Vector">
<use xlink:href="#path1_stroke" transform="translate(11.3333 -283)" fill="#333333"/>
</g>
</g>
</g>
<defs>
<path id="path0_stroke" d="M 1.77778 0.6L 16 0.6L 16 -0.6L 1.77778 -0.6L 1.77778 0.6ZM 16 0.6C 16.6505 0.6 17.1778 1.12731 17.1778 1.77778L 18.3778 1.77778C 18.3778 0.464567 17.3132 -0.6 16 -0.6L 16 0.6ZM 17.1778 1.77778L 17.1778 10.6667L 18.3778 10.6667L 18.3778 1.77778L 17.1778 1.77778ZM 17.1778 10.6667C 17.1778 11.3171 16.6505 11.8444 16 11.8444L 16 13.0444C 17.3132 13.0444 18.3778 11.9799 18.3778 10.6667L 17.1778 10.6667ZM 16 11.8444L 1.77778 11.8444L 1.77778 13.0444L 16 13.0444L 16 11.8444ZM 1.77778 11.8444C 1.12731 11.8444 0.6 11.3171 0.6 10.6667L -0.6 10.6667C -0.6 11.9799 0.464567 13.0444 1.77778 13.0444L 1.77778 11.8444ZM 0.6 10.6667L 0.6 1.77778L -0.6 1.77778L -0.6 10.6667L 0.6 10.6667ZM 0.6 1.77778C 0.6 1.12731 1.12731 0.6 1.77778 0.6L 1.77778 -0.6C 0.464567 -0.6 -0.6 0.464567 -0.6 1.77778L 0.6 1.77778Z"/>
<path id="path1_stroke" d="M 6.51111 16C 6.51111 16.3314 6.77974 16.6 7.11111 16.6C 7.44248 16.6 7.71111 16.3314 7.71111 16L 6.51111 16ZM 5.33333 0L 5.33333 -0.6L 5.33333 0ZM 1.77778 0L 1.77778 -0.6L 1.77778 0ZM 7.89492e-16 1.77778L -0.6 1.77778L 7.89492e-16 1.77778ZM -0.6 16C -0.6 16.3314 -0.331371 16.6 7.89492e-16 16.6C 0.331371 16.6 0.6 16.3314 0.6 16L -0.6 16ZM 7.71111 16L 7.71111 1.77778L 6.51111 1.77778L 6.51111 16L 7.71111 16ZM 7.71111 1.77778C 7.71111 1.14715 7.4606 0.542355 7.01468 0.0964349L 6.16615 0.944963C 6.38702 1.16584 6.51111 1.46541 6.51111 1.77778L 7.71111 1.77778ZM 7.01468 0.0964349C 6.56876 -0.349485 5.96396 -0.6 5.33333 -0.6L 5.33333 0.6C 5.6457 0.6 5.94527 0.724087 6.16615 0.944963L 7.01468 0.0964349ZM 5.33333 -0.6L 1.77778 -0.6L 1.77778 0.6L 5.33333 0.6L 5.33333 -0.6ZM 1.77778 -0.6C 1.14715 -0.6 0.542355 -0.349485 0.0964353 0.0964349L 0.944963 0.944963C 1.16584 0.724087 1.46541 0.6 1.77778 0.6L 1.77778 -0.6ZM 0.0964353 0.0964349C -0.349484 0.542355 -0.6 1.14715 -0.6 1.77778L 0.6 1.77778C 0.6 1.46541 0.724087 1.16584 0.944963 0.944963L 0.0964353 0.0964349ZM -0.6 1.77778L -0.6 16L 0.6 16L 0.6 1.77778L -0.6 1.77778Z"/>
</defs>
</svg>
