<svg width="24" height="24" viewBox="0 0 24 24" version="1.1" xmlns="http://www.w3.org/2000/svg" xmlns:xlink="http://www.w3.org/1999/xlink">
<title>Group 2</title>
<desc>Created using Figma</desc>
<g id="Canvas" transform="translate(-315 67)">
<g id="Group 2">
<g id="Ellipse">
<use xlink:href="#path0_fill" transform="translate(315 -67)" fill="#27AE60"/>
</g>
<g id="Vector">
<use xlink:href="#path1_stroke" transform="translate(321.5 -59.5)" fill="#FFFFFF"/>
</g>
</g>
</g>
<defs>
<path id="path0_fill" d="M 24 12C 24 18.6274 18.6274 24 12 24C 5.37258 24 0 18.6274 0 12C 0 5.37258 5.37258 0 12 0C 18.6274 0 24 5.37258 24 12Z"/>
<path id="path1_stroke" d="M 0.707107 3.79289C 0.316583 3.40237 -0.316583 3.40237 -0.707107 3.79289C -1.09763 4.18342 -1.09763 4.81658 -0.707107 5.20711L 0.707107 3.79289ZM 4.5 9L 3.79289 9.70711C 3.98764 9.90185 4.25408 10.0077 4.52937 9.99957C 4.80467 9.99148 5.06444 9.87021 5.24741 9.66436L 4.5 9ZM 13.2474 0.664364C 13.6143 0.251581 13.5771 -0.380491 13.1644 -0.747409C 12.7516 -1.11433 12.1195 -1.07715 11.7526 -0.664364L 13.2474 0.664364ZM -0.707107 5.20711L 3.79289 9.70711L 5.20711 8.29289L 0.707107 3.79289L -0.707107 5.20711ZM 5.24741 9.66436L 13.2474 0.664364L 11.7526 -0.664364L 3.75259 8.33564L 5.24741 9.66436Z"/>
</defs>
</svg>
