<svg width="21" height="28" viewBox="0 0 21 28" version="1.1" xmlns="http://www.w3.org/2000/svg" xmlns:xlink="http://www.w3.org/1999/xlink">
<title>medal</title>
<desc>Created using Figma</desc>
<g id="Canvas" transform="translate(-7 -68)">
<g id="medal">
<g id="top1">
<g id="Group">
<g id="Vector">
<use xlink:href="#path0_fill" transform="translate(7.27129 84.3644)" fill="#DE7818"/>
</g>
<g id="Vector">
<use xlink:href="#path1_fill" transform="translate(10.2636 86.2333)" fill="#B35454"/>
</g>
<g id="Vector">
<use xlink:href="#path2_fill" transform="translate(7 68)" fill="#FFCB89"/>
</g>
<g id="Vector">
<use xlink:href="#path3_fill" transform="translate(8.444 69.444)" fill="#E3AD3E"/>
</g>
<g id="Vector">
<use xlink:href="#path4_fill" transform="translate(8.989 70)" fill="#F2B866"/>
</g>
<g id="Vector">
<use xlink:href="#path5_fill" transform="translate(19.9584 71.0886)" fill="#FFFFFF" fill-opacity="0.2"/>
</g>
<g id="Vector">
<use xlink:href="#path6_fill" transform="translate(18.4694 86.248)" fill="#B35454"/>
</g>
</g>
</g>
<g id="3" filter="url(#filter0_d)">
<use xlink:href="#path7_fill" transform="translate(12 71)" fill="#FFF2B5"/>
</g>
</g>
</g>
<defs>
<filter id="filter0_d" filterUnits="userSpaceOnUse" x="13" y="73" width="9" height="12" color-interpolation-filters="sRGB">
<feFlood flood-opacity="0" result="BackgroundImageFix"/>
<feColorMatrix in="SourceAlpha" type="matrix" values="0 0 0 0 0 0 0 0 0 0 0 0 0 0 0 0 0 0 255 0"/>
<feOffset dx="0" dy="0"/>
<feGaussianBlur stdDeviation="0.5"/>
<feColorMatrix type="matrix" values="0 0 0 0 0 0 0 0 0 0 0 0 0 0 0 0 0 0 0.25 0"/>
<feBlend mode="normal" in2="BackgroundImageFix" result="effect1_dropShadow"/>
<feBlend mode="normal" in="SourceGraphic" in2="effect1_dropShadow" result="shape"/>
</filter>
<path id="path0_fill" d="M 4.04789 -6.62866e-07L 0.045236 8.53604C -0.0800772 8.79403 0.0526078 8.9562 0.472774 8.87512L 3.73092 8.16746C 3.7954 8.14482 3.86642 8.15028 3.92669 8.18251C 3.98695 8.21474 4.03092 8.27079 4.04788 8.33699L 5.51478 11.3445C 5.65484 11.6688 5.81701 11.7352 5.94232 11.4772L 10.203 2.54312L 4.04789 -6.62866e-07ZM 16.3875 -6.62866e-07L 20.3902 8.53604C 20.5229 8.79403 20.3828 8.9562 19.9627 8.87512L 16.7045 8.16746C 16.64 8.14565 16.5694 8.1515 16.5093 8.18361C 16.4493 8.21572 16.4052 8.27124 16.3875 8.33699L 14.9206 11.3445C 14.7806 11.6689 14.6258 11.7352 14.4931 11.4772L 10.2325 2.54312L 16.3875 -6.62866e-07Z"/>
<path id="path1_fill" d="M 6.02388 3.1584C 6.02388 3.16577 6.00914 3.1584 5.9944 3.1584C 3.76087 2.9108 1.66686 1.9491 0.0235973 0.416249C 0.0162254 0.408877 -0.00588813 0.401504 0.00148374 0.394135L 0.185767 0.00344875C 0.193139 -0.011295 0.207881 0.0255606 0.215253 0.0329325C 1.79272 1.49983 3.98202 2.42125 6.22291 2.69399C 6.23028 2.69399 6.24502 2.69399 6.24502 2.70137L 6.02388 3.1584Z"/>
<path id="path2_fill" d="M 10.489 20.978C 16.2819 20.978 20.978 16.2819 20.978 10.489C 20.978 4.69609 16.2819 0 10.489 0C 4.69609 0 0 4.69609 0 10.489C 0 16.2819 4.69609 20.978 10.489 20.978Z"/>
<path id="path3_fill" d="M 9.045 18.09C 14.0404 18.09 18.09 14.0404 18.09 9.045C 18.09 4.04958 14.0404 0 9.045 0C 4.04958 0 0 4.04958 0 9.045C 0 14.0404 4.04958 18.09 9.045 18.09Z"/>
<path id="path4_fill" d="M 8.75 17.5C 13.5825 17.5 17.5 13.5825 17.5 8.75C 17.5 3.91751 13.5825 0 8.75 0C 3.91751 0 0 3.91751 0 8.75C 0 13.5825 3.91751 17.5 8.75 17.5Z"/>
<path id="path5_fill" d="M -1.25745e-07 -9.34015e-08C 3.35676 0.801406 5.75287 3.76292 5.83592 7.21302C 5.91897 10.6631 3.66814 13.7365 0.353826 14.6985C 2.38832 13.1431 3.73728 10.4894 3.73728 7.47456C 3.73728 4.29013 2.23352 1.51113 -1.25745e-07 -9.34015e-08Z"/>
<path id="path6_fill" d="M 0.221145 3.14365C 0.228517 3.15102 0.243259 3.14365 0.250631 3.14365C 2.54313 2.85617 4.65133 1.93475 6.23618 0.416249C 6.24355 0.408877 6.26566 0.401505 6.25829 0.394135L 6.074 0.00344883C 6.06663 -0.0112949 6.05189 0.0255607 6.04452 0.0329326C 4.46705 1.49983 2.27038 2.40651 0.0221133 2.67925C 0.0147415 2.67925 -4.65991e-07 2.67925 -4.65991e-07 2.68662L 0.221145 3.14365Z"/>
<path id="path7_fill" d="M 4.44629 8.36914L 4.44629 6.71875L 5.37305 6.71875C 5.71582 6.71875 5.98877 6.62988 6.19189 6.45215C 6.39502 6.27441 6.49658 6.04378 6.49658 5.76025C 6.49658 5.50212 6.39079 5.2863 6.1792 5.11279C 5.97184 4.93929 5.70736 4.85254 5.38574 4.85254C 5.0472 4.85254 4.77425 4.95622 4.56689 5.16357C 4.36377 5.3667 4.25798 5.60156 4.24951 5.86816L 2.14844 5.86816C 2.17806 5.0472 2.48486 4.39551 3.06885 3.91309C 3.65283 3.42643 4.45687 3.18311 5.48096 3.18311C 6.08187 3.18311 6.62565 3.27832 7.1123 3.46875C 7.60319 3.65495 7.9904 3.92367 8.27393 4.2749C 8.55745 4.62614 8.70133 5.02604 8.70557 5.47461C 8.70557 5.7666 8.65479 6.0332 8.55322 6.27441C 8.45589 6.51562 8.32682 6.71029 8.16602 6.8584C 8.00521 7.00651 7.83805 7.125 7.66455 7.21387C 7.49105 7.2985 7.31755 7.3514 7.14404 7.37256L 7.14404 7.48047C 7.3641 7.4974 7.5778 7.55241 7.78516 7.64551C 7.99251 7.73438 8.18294 7.86133 8.35645 8.02637C 8.53418 8.18717 8.67594 8.40088 8.78174 8.66748C 8.89176 8.93408 8.94678 9.23031 8.94678 9.55615C 8.94678 10.0851 8.77962 10.5506 8.44531 10.9526C 8.111 11.3547 7.67725 11.6572 7.14404 11.8604C 6.61084 12.0592 6.02686 12.1587 5.39209 12.1587C 4.83773 12.1587 4.34261 12.0846 3.90674 11.9365C 3.4751 11.7884 3.12598 11.5874 2.85938 11.3335C 2.59277 11.0796 2.38965 10.7918 2.25 10.4702C 2.11458 10.1486 2.04476 9.80371 2.04053 9.43555L 4.10986 9.43555C 4.12679 9.73177 4.26009 9.9751 4.50977 10.1655C 4.75944 10.356 5.07048 10.4512 5.44287 10.4512C 5.8195 10.4512 6.12207 10.3517 6.35059 10.1528C 6.5791 9.95394 6.69336 9.70426 6.69336 9.40381C 6.69336 9.10758 6.58122 8.86214 6.35693 8.66748C 6.13265 8.46859 5.8195 8.36914 5.41748 8.36914L 4.44629 8.36914Z"/>
</defs>
</svg>
