<svg width="18" height="18" viewBox="0 0 18 18" version="1.1" xmlns="http://www.w3.org/2000/svg" xmlns:xlink="http://www.w3.org/1999/xlink">
<title>phone</title>
<desc>Created using Figma</desc>
<g id="Canvas" transform="translate(-6 537)">
<g id="phone">
<g id="Vector">
<use xlink:href="#path0_stroke" transform="translate(7 -536)" fill="#333333"/>
</g>
</g>
</g>
<defs>
<path id="path0_stroke" d="M 15.9995 12.0029L 15.3997 11.988C 15.3996 11.9929 15.3995 11.9979 15.3995 12.0029L 15.9995 12.0029ZM 15.9995 14.4163L 15.3995 14.4163L 15.3995 14.4187L 15.9995 14.4163ZM 14.2457 16.0252L 14.1809 16.6218L 14.1917 16.6228L 14.2457 16.0252ZM 7.30312 13.5555L 7.6296 13.0521L 7.62492 13.0491L 7.30312 13.5555ZM 2.47627 8.72864L 2.9827 8.40683L 2.97984 8.40242L 2.47627 8.72864ZM 0.00652962 1.75383L -0.591109 1.80784L -0.590116 1.81719L 0.00652962 1.75383ZM 0.420646 0.524291L -0.0224891 0.119778L 0.420646 0.524291ZM 0.958861 0.137259L 0.716433 -0.411584L 0.958861 0.137259ZM 1.60744 7.79958e-05L 1.60744 -0.599922L 1.60687 -0.599922L 1.60744 7.79958e-05ZM 4.02086 7.79958e-05L 4.02086 0.600107L 4.02677 0.600049L 4.02086 7.79958e-05ZM 5.62981 1.38378L 6.22469 1.30532L 6.22391 1.29981L 5.62981 1.38378ZM 6.19295 3.64435L 5.63081 3.85412L 5.63132 3.85547L 6.19295 3.64435ZM 5.83093 5.3418L 6.2552 5.76607L 6.25756 5.76368L 5.83093 5.3418ZM 4.80925 6.36348L 4.38498 5.93922C 4.194 6.1302 4.15416 6.42526 4.28767 6.66006L 4.80925 6.36348ZM 9.6361 11.1903L 9.33953 11.7119C 9.57432 11.8454 9.86938 11.8056 10.0604 11.6146L 9.6361 11.1903ZM 10.6578 10.1687L 10.2359 9.74201L 10.2335 9.74439L 10.6578 10.1687ZM 12.3552 9.80664L 12.1441 10.3683L 12.1455 10.3688L 12.3552 9.80664ZM 14.6158 10.3698L 14.6996 9.77563L 14.6943 9.77492L 14.6158 10.3698ZM 15.3995 12.0029L 15.3995 14.4163L 16.5995 14.4163L 16.5995 12.0029L 15.3995 12.0029ZM 15.3995 14.4187C 15.4034 14.5804 15.3828 14.6801 15.315 14.827L 16.4145 15.3077C 16.5263 15.0441 16.5974 14.7002 16.5995 14.4138L 15.3995 14.4187ZM 15.315 14.827C 15.2532 14.9765 15.194 15.0593 15.0726 15.1663L 15.8839 16.0505C 16.0927 15.8545 16.2968 15.5688 16.4145 15.3077L 15.315 14.827ZM 15.0726 15.1663C 14.9557 15.278 14.868 15.3298 14.7138 15.3786L 15.0982 16.5153C 15.3685 16.4205 15.6707 16.2417 15.8839 16.0505L 15.0726 15.1663ZM 14.7138 15.3786C 14.5616 15.4335 14.4605 15.4455 14.2998 15.4277L 14.1917 16.6228C 14.4772 16.6453 14.8259 16.604 15.0982 16.5153L 14.7138 15.3786ZM 14.3106 15.4287C 11.9041 15.1714 9.65793 14.3723 7.62958 13.0521L 6.97666 14.0589C 9.12676 15.4484 11.6364 16.3411 14.1809 16.6217L 14.3106 15.4287ZM 7.62492 13.0491C 5.73465 11.8522 4.17956 10.2971 2.98268 8.40685L 1.96986 9.05043C 3.24326 11.0477 4.98409 12.7885 6.98133 14.0619L 7.62492 13.0491ZM 2.97984 8.40242C 1.65496 6.36486 0.855729 4.10774 0.603175 1.69047L -0.590116 1.81719C -0.314542 4.37319 0.578413 6.89499 1.9727 9.05486L 2.97984 8.40242ZM 0.604095 1.69983C 0.58637 1.53955 0.598256 1.43875 0.652777 1.28698L -0.484453 0.903959C -0.572526 1.17556 -0.613518 1.5232 -0.591035 1.80783L 0.604095 1.69983ZM 0.652777 1.28698C 0.701183 1.13316 0.752697 1.04571 0.863782 0.928805L -0.0224891 0.119778C -0.212593 0.332817 -0.390265 0.634415 -0.484453 0.903959L 0.652777 1.28698ZM 0.863782 0.928805C 0.970101 0.807549 1.0525 0.748296 1.20129 0.686102L 0.716433 -0.411584C 0.456571 -0.293275 0.17238 -0.0889114 -0.0224891 0.119778L 0.863782 0.928805ZM 1.20129 0.686102C 1.34747 0.618005 1.44677 0.597003 1.608 0.600078L 1.60687 -0.599922C 1.32137 -0.596427 0.978902 -0.523992 0.716433 -0.411584L 1.20129 0.686102ZM 1.60744 0.600078L 4.02086 0.600078L 4.02086 -0.599922L 1.60744 -0.599922L 1.60744 0.600078ZM 4.02677 0.600049C 4.30966 0.587567 4.48633 0.652099 4.69457 0.843979L 5.47702 -0.0658429C 5.09322 -0.383122 4.5129 -0.595096 4.01496 -0.599893L 4.02677 0.600049ZM 4.69457 0.843979C 4.91546 1.02116 5.00571 1.18617 5.03572 1.46775L 6.22391 1.29981C 6.14463 0.808192 5.84818 0.26614 5.47702 -0.0658429L 4.69457 0.843979ZM 5.03497 1.46223C 5.14221 2.26805 5.3475 3.09216 5.63081 3.85412L 6.75509 3.43459C 6.49368 2.73679 6.32115 2.0442 6.22466 1.30532L 5.03497 1.46223ZM 5.63132 3.85547C 5.71527 4.06155 5.72598 4.20464 5.67364 4.42093L 6.84725 4.67122C 6.92323 4.28582 6.88709 3.80303 6.75458 3.43324L 5.63132 3.85547ZM 5.67364 4.42093C 5.63319 4.63975 5.56503 4.76601 5.4043 4.91991L 6.25756 5.76368C 6.52942 5.48012 6.75939 5.05409 6.84725 4.67122L 5.67364 4.42093ZM 5.40667 4.91753L 4.38498 5.93922L 5.23351 6.78774L 6.2552 5.76606L 5.40667 4.91753ZM 4.28767 6.66006C 5.47725 8.74121 7.25837 10.5223 9.33953 11.7119L 9.93268 10.6688C 7.98575 9.56791 6.43167 8.01383 5.33083 6.0669L 4.28767 6.66006ZM 10.0604 11.6146L 11.0821 10.5929L 10.2335 9.74439L 9.21184 10.7661L 10.0604 11.6146ZM 11.0797 10.5953C 11.2336 10.4345 11.3598 10.3664 11.5787 10.3259L 11.3284 9.15233C 10.9455 9.2402 10.5195 9.47016 10.2359 9.74202L 11.0797 10.5953ZM 11.5787 10.3259C 11.7949 10.2736 11.938 10.2843 12.1441 10.3683L 12.5663 9.245C 12.1966 9.11249 11.7138 9.07635 11.3284 9.15233L 11.5787 10.3259ZM 12.1455 10.3688C 12.9074 10.6521 13.7315 10.8574 14.5374 10.9646L 14.6943 9.77492C 13.9554 9.67844 13.2628 9.5059 12.565 9.2445L 12.1455 10.3688ZM 14.532 10.9639C 14.8167 10.994 14.9834 11.086 15.1608 11.3107L 16.0764 10.535C 15.7435 10.1574 15.1965 9.85575 14.6996 9.77565L 14.532 10.9639ZM 15.1608 11.3107C 15.3533 11.5226 15.4167 11.7022 15.3997 11.988L 16.5993 12.0177C 16.6019 11.5144 16.3941 10.9253 16.0764 10.535L 15.1608 11.3107Z"/>
</defs>
</svg>
