<svg width="18" height="20" viewBox="0 0 18 20" version="1.1" xmlns="http://www.w3.org/2000/svg" xmlns:xlink="http://www.w3.org/1999/xlink">
<title>Vector</title>
<desc>Created using Figma</desc>
<g id="Canvas" transform="translate(-469 316)">
<g id="Vector">
<use xlink:href="#path0_stroke" transform="translate(470 -315)" fill="#333333"/>
</g>
</g>
<defs>
<path id="path0_stroke" d="M 8.88889 0L 9.48426 0.0744208C 9.51729 -0.189878 9.37213 -0.44432 9.12781 -0.550381C 8.88348 -0.656442 8.59847 -0.588731 8.42796 -0.384111L 8.88889 0ZM 0 10.6667L -0.460933 10.2826C -0.609975 10.4614 -0.642102 10.7103 -0.543354 10.9212C -0.444606 11.132 -0.232811 11.2667 -1.02348e-16 11.2667L 0 10.6667ZM 8 10.6667L 8.59537 10.7411C 8.61671 10.5703 8.5637 10.3986 8.44981 10.2696C 8.33591 10.1406 8.1721 10.0667 8 10.0667L 8 10.6667ZM 7.11111 17.7778L 6.51574 17.7034C 6.48271 17.9677 6.62787 18.2221 6.8722 18.3282C 7.11652 18.4342 7.40153 18.3665 7.57204 18.1619L 7.11111 17.7778ZM 16 7.11111L 16.4609 7.49522C 16.61 7.31637 16.6421 7.06745 16.5434 6.85662C 16.4446 6.64579 16.2328 6.51111 16 6.51111L 16 7.11111ZM 8 7.11111L 7.40463 7.03669C 7.38329 7.20746 7.4363 7.37917 7.55019 7.50819C 7.66409 7.63721 7.8279 7.71111 8 7.71111L 8 7.11111ZM 8.42796 -0.384111L -0.460933 10.2826L 0.460933 11.0508L 9.34982 0.384111L 8.42796 -0.384111ZM 0 11.2667L 8 11.2667L 8 10.0667L 0 10.0667L 0 11.2667ZM 7.40463 10.5922L 6.51574 17.7034L 7.70648 17.8522L 8.59537 10.7411L 7.40463 10.5922ZM 7.57204 18.1619L 16.4609 7.49522L 15.5391 6.727L 6.65018 17.3937L 7.57204 18.1619ZM 16 6.51111L 8 6.51111L 8 7.71111L 16 7.71111L 16 6.51111ZM 8.59537 7.18553L 9.48426 0.0744208L 8.29352 -0.0744208L 7.40463 7.03669L 8.59537 7.18553Z"/>
</defs>
</svg>
