<svg width="21" height="28" viewBox="0 0 21 28" version="1.1" xmlns="http://www.w3.org/2000/svg" xmlns:xlink="http://www.w3.org/1999/xlink">
<title>medal</title>
<desc>Created using Figma</desc>
<g id="Canvas" transform="translate(-7 -183)">
<g id="medal">
<g id="Vector">
<use xlink:href="#path0_fill" transform="translate(7.27129 199.364)" fill="#939393"/>
</g>
<g id="Vector">
<use xlink:href="#path1_fill" transform="translate(10.2636 201.233)" fill="#000000" fill-opacity="0.2"/>
</g>
<g id="Vector">
<use xlink:href="#path2_fill" transform="translate(7 183)" fill="#E0E0E0"/>
</g>
<g id="Vector">
<use xlink:href="#path3_fill" transform="translate(8.444 184.444)" fill="#C0C0C0"/>
</g>
<g id="Vector">
<use xlink:href="#path4_fill" transform="translate(8.989 185)" fill="#CCCCCC"/>
</g>
<g id="Vector">
<use xlink:href="#path5_fill" transform="translate(19.9584 186.089)" fill="#FFFFFF" fill-opacity="0.2"/>
</g>
<g id="Vector">
<use xlink:href="#path6_fill" transform="translate(18.4694 201.248)" fill="#000000" fill-opacity="0.2"/>
</g>
<g id="2" filter="url(#filter0_d)">
<use xlink:href="#path7_fill" transform="translate(12 186)" fill="#FAFAFA"/>
</g>
</g>
</g>
<defs>
<filter id="filter0_d" filterUnits="userSpaceOnUse" x="13" y="188" width="9" height="11" color-interpolation-filters="sRGB">
<feFlood flood-opacity="0" result="BackgroundImageFix"/>
<feColorMatrix in="SourceAlpha" type="matrix" values="0 0 0 0 0 0 0 0 0 0 0 0 0 0 0 0 0 0 255 0"/>
<feOffset dx="0" dy="0"/>
<feGaussianBlur stdDeviation="0.5"/>
<feColorMatrix type="matrix" values="0 0 0 0 0 0 0 0 0 0 0 0 0 0 0 0 0 0 0.15 0"/>
<feBlend mode="normal" in2="BackgroundImageFix" result="effect1_dropShadow"/>
<feBlend mode="normal" in="SourceGraphic" in2="effect1_dropShadow" result="shape"/>
</filter>
<path id="path0_fill" d="M 4.04789 -6.62866e-07L 0.045236 8.53604C -0.0800772 8.79403 0.0526078 8.9562 0.472774 8.87512L 3.73092 8.16746C 3.7954 8.14482 3.86642 8.15028 3.92669 8.18251C 3.98695 8.21474 4.03092 8.27079 4.04788 8.33699L 5.51478 11.3445C 5.65484 11.6688 5.81701 11.7352 5.94232 11.4772L 10.203 2.54312L 4.04789 -6.62866e-07ZM 16.3875 -6.62866e-07L 20.3902 8.53604C 20.5229 8.79403 20.3828 8.9562 19.9627 8.87512L 16.7045 8.16746C 16.64 8.14565 16.5694 8.1515 16.5093 8.18361C 16.4493 8.21572 16.4052 8.27124 16.3875 8.33699L 14.9206 11.3445C 14.7806 11.6689 14.6258 11.7352 14.4931 11.4772L 10.2325 2.54312L 16.3875 -6.62866e-07Z"/>
<path id="path1_fill" d="M 6.02388 3.1584C 6.02388 3.16577 6.00914 3.1584 5.9944 3.1584C 3.76087 2.9108 1.66686 1.9491 0.0235973 0.416249C 0.0162254 0.408877 -0.00588813 0.401504 0.00148374 0.394135L 0.185767 0.00344875C 0.193139 -0.011295 0.207881 0.0255606 0.215253 0.0329325C 1.79272 1.49983 3.98202 2.42125 6.22291 2.69399C 6.23028 2.69399 6.24502 2.69399 6.24502 2.70137L 6.02388 3.1584Z"/>
<path id="path2_fill" d="M 10.489 20.978C 16.2819 20.978 20.978 16.2819 20.978 10.489C 20.978 4.69609 16.2819 0 10.489 0C 4.69609 0 0 4.69609 0 10.489C 0 16.2819 4.69609 20.978 10.489 20.978Z"/>
<path id="path3_fill" d="M 9.045 18.09C 14.0404 18.09 18.09 14.0404 18.09 9.045C 18.09 4.04958 14.0404 0 9.045 0C 4.04958 0 0 4.04958 0 9.045C 0 14.0404 4.04958 18.09 9.045 18.09Z"/>
<path id="path4_fill" d="M 8.75 17.5C 13.5825 17.5 17.5 13.5825 17.5 8.75C 17.5 3.91751 13.5825 0 8.75 0C 3.91751 0 0 3.91751 0 8.75C 0 13.5825 3.91751 17.5 8.75 17.5Z"/>
<path id="path5_fill" d="M -1.25745e-07 -9.34015e-08C 3.35676 0.801406 5.75287 3.76292 5.83592 7.21302C 5.91897 10.6631 3.66814 13.7365 0.353826 14.6985C 2.38832 13.1431 3.73728 10.4894 3.73728 7.47456C 3.73728 4.29013 2.23352 1.51113 -1.25745e-07 -9.34015e-08Z"/>
<path id="path6_fill" d="M 0.221145 3.14365C 0.228517 3.15102 0.243259 3.14365 0.250631 3.14365C 2.54313 2.85617 4.65133 1.93475 6.23618 0.416249C 6.24355 0.408877 6.26566 0.401505 6.25829 0.394135L 6.074 0.00344883C 6.06663 -0.0112949 6.05189 0.0255607 6.04452 0.0329326C 4.46705 1.49983 2.27038 2.40651 0.0221133 2.67925C 0.0147415 2.67925 -4.65991e-07 2.67925 -4.65991e-07 2.68662L 0.221145 3.14365Z"/>
<path id="path7_fill" d="M 4.38281 6.09668L 2.25 6.09668L 2.25 5.96973C 2.25 5.69889 2.28809 5.43229 2.36426 5.16992C 2.44043 4.90755 2.56315 4.65576 2.73242 4.41455C 2.90169 4.17334 3.10693 3.96175 3.34814 3.77979C 3.58936 3.59782 3.88981 3.45394 4.24951 3.34814C 4.60921 3.23812 5.00277 3.18311 5.43018 3.18311C 6.39079 3.18311 7.1652 3.41797 7.75342 3.8877C 8.34163 4.35742 8.63574 4.94987 8.63574 5.66504C 8.63574 5.82161 8.62093 5.97819 8.59131 6.13477C 8.56169 6.28711 8.52783 6.42253 8.48975 6.54102C 8.45589 6.65527 8.39876 6.78223 8.31836 6.92188C 8.23796 7.06152 8.17236 7.17155 8.12158 7.25195C 8.0708 7.33236 7.98617 7.44238 7.86768 7.58203C 7.74919 7.71745 7.66455 7.81266 7.61377 7.86768C 7.56722 7.91846 7.47412 8.01367 7.33447 8.15332C 7.19482 8.29297 7.10807 8.38184 7.07422 8.41992L 5.45557 10.1338L 5.45557 10.2163L 8.78174 10.2163L 8.78174 12L 2.40869 12L 2.40869 10.6035L 5.46191 7.48682C 5.61003 7.3387 5.72428 7.22021 5.80469 7.13135C 5.88932 7.03825 5.98454 6.91976 6.09033 6.77588C 6.20036 6.62777 6.28076 6.48177 6.33154 6.33789C 6.38232 6.19401 6.40771 6.0459 6.40771 5.89355C 6.40771 5.63119 6.31038 5.4069 6.11572 5.2207C 5.92106 5.0345 5.67773 4.94141 5.38574 4.94141C 5.08105 4.94141 4.83561 5.04085 4.64941 5.23975C 4.46745 5.43441 4.37646 5.67139 4.37646 5.95068C 4.37646 5.96761 4.37646 5.99512 4.37646 6.0332C 4.3807 6.06706 4.38281 6.08822 4.38281 6.09668Z"/>
</defs>
</svg>
