<svg width="17" height="16" viewBox="0 0 17 16" version="1.1" xmlns="http://www.w3.org/2000/svg" xmlns:xlink="http://www.w3.org/1999/xlink">
<title>Union</title>
<desc>Created using Figma</desc>
<g id="Canvas" transform="translate(-202 63)">
<g id="Union">
<use xlink:href="#path0_fill" transform="translate(202 -63)" fill="#02489D"/>
</g>
</g>
<defs>
<path id="path0_fill" fill-rule="evenodd" d="M 9.24242 8.46346C 12.6339 7.60871 14.7617 5.84817 14.7617 5.84817C 16.8786 4.07732 16.4574 2.43019 16.4574 2.43019C 16.1903 1.34912 14.8849 0.710403 14.8849 0.710403C 13.6104 0.0721703 11.6883 0 11.6883 0L 11.9146 0.88567C 13.3944 1.24603 13.6001 2.08015 13.6001 2.08015C 13.8465 3.04781 12.3874 4.1598 12.3874 4.1598C 10.9072 5.26149 8.59485 5.83786 8.59485 5.83786C 8.39509 5.88721 8.19922 5.93029 8.00809 5.96782C 8.1511 4.84539 8.35822 4.17011 8.35822 4.17011C 8.9238 2.36833 9.75596 2.36833 9.75596 2.36833C 10.1364 2.36833 10.4241 2.68745 10.4241 2.68745L 11.1129 2.50187C 10.0132 0.134029 8.47114 0.134029 8.47114 0.134029C 6.92957 0.134029 5.84015 2.46112 5.84015 2.46112C 5.29046 3.64028 5.01813 5.06069 4.88321 6.17866C 4.61327 6.15957 4.46305 6.13636 4.46305 6.13636C 2.65389 5.84817 2.39713 4.89083 2.39713 4.89083C 2.20173 4.13918 3.07512 3.26382 3.07512 3.26382C 3.9284 2.43019 5.46998 1.77085 5.46998 1.77085L 5.2952 1.09138C 2.65389 2.10077 1.184 3.61387 1.184 3.61387C -0.306025 5.13777 0.0332079 6.51734 0.0332079 6.51734C 0.433827 8.17527 3.13698 8.75164 3.13698 8.75164C 3.66645 8.86049 4.22272 8.91565 4.775 8.93397C 4.9357 11.7602 5.84015 13.6832 5.84015 13.6832C 6.92957 16 8.47114 16 8.47114 16C 9.75596 16 10.7737 14.2905 10.7737 14.2905C 11.7605 12.5918 12.0791 9.96625 12.0791 9.96625L 10.8454 10.2755C 10.6809 11.686 10.2906 12.5506 10.2906 12.5506C 9.8998 13.4156 9.43732 13.4156 9.43732 13.4156C 8.77945 13.4156 8.32729 11.8402 8.32729 11.8402C 8.02721 10.8087 7.92629 9.49132 7.89234 8.7218C 8.70707 8.59625 9.24242 8.46346 9.24242 8.46346Z"/>
</defs>
</svg>
