<svg width="22" height="18" viewBox="0 0 22 18" version="1.1" xmlns="http://www.w3.org/2000/svg" xmlns:xlink="http://www.w3.org/1999/xlink">
<title>Group 2</title>
<desc>Created using Figma</desc>
<g id="Canvas" transform="translate(-4 409)">
<g id="Group 2">
<g id="Vector">
<use xlink:href="#path0_stroke" transform="translate(11.2301 -395.545)"/>
</g>
<g id="Vector">
<use xlink:href="#path1_stroke" transform="translate(14.7855 -399.99)"/>
</g>
<g id="Vector">
<use xlink:href="#path2_stroke" transform="translate(5 -408)"/>
</g>
</g>
</g>
<defs>
<path id="path0_stroke" d="M 0.424264 -0.424264C 0.189949 -0.658579 -0.189949 -0.658579 -0.424264 -0.424264C -0.658579 -0.189949 -0.658579 0.189949 -0.424264 0.424264L 0.424264 -0.424264ZM 3.55548 3.55548L 3.13121 3.97974C 3.36553 4.21406 3.74543 4.21406 3.97974 3.97974L 3.55548 3.55548ZM 7.53522 0.424264C 7.76953 0.189949 7.76953 -0.189949 7.53522 -0.424264C 7.3009 -0.658579 6.921 -0.658579 6.68669 -0.424264L 7.53522 0.424264ZM -0.424264 0.424264L 3.13121 3.97974L 3.97974 3.13121L 0.424264 -0.424264L -0.424264 0.424264ZM 3.97974 3.97974L 7.53522 0.424264L 6.68669 -0.424264L 3.13121 3.13121L 3.97974 3.97974Z"/>
<path id="path1_stroke" d="M 0.6 0C 0.6 -0.331371 0.331371 -0.6 0 -0.6C -0.331371 -0.6 -0.6 -0.331371 -0.6 0L 0.6 0ZM -0.6 7.99982C -0.6 8.33119 -0.331371 8.59982 0 8.59982C 0.331371 8.59982 0.6 8.33119 0.6 7.99982L -0.6 7.99982ZM -0.6 0L -0.6 7.99982L 0.6 7.99982L 0.6 0L -0.6 0Z"/>
<path id="path2_stroke" d="M 17.3336 12.9326C 17.0625 13.1232 16.9973 13.4975 17.1879 13.7685C 17.3785 14.0396 17.7528 14.1048 18.0238 13.9142L 17.3336 12.9326ZM 15.1187 5.34357L 15.1187 5.94357L 15.1192 5.94357L 15.1187 5.34357ZM 13.9988 5.34357L 13.4176 5.4927C 13.4857 5.75804 13.7248 5.94357 13.9988 5.94357L 13.9988 5.34357ZM 0.262524 9.02528L -0.315325 9.18681L 0.262524 9.02528ZM 1.33638 12.2211C 1.55598 12.4692 1.93517 12.4924 2.18333 12.2728C 2.43149 12.0532 2.45464 11.674 2.23504 11.4258L 1.33638 12.2211ZM 18.0238 13.9142C 18.8696 13.3103 19.5622 12.3834 19.9016 11.4012L 18.7646 11.0175C 18.4998 11.8254 18.0334 12.4496 17.3336 12.9326L 18.0238 13.9142ZM 19.9016 11.4012C 20.2269 10.4143 20.2377 9.25725 19.931 8.26435L 18.787 8.62679C 19.051 9.43507 19.0437 10.2142 18.7646 11.0175L 19.9016 11.4012ZM 19.931 8.26435C 19.61 7.27596 18.9349 6.33629 18.1006 5.71669L 17.392 6.68519C 18.0827 7.18117 18.5373 7.81398 18.787 8.62679L 19.931 8.26435ZM 18.1006 5.71669C 17.2574 5.10916 16.1575 4.75024 15.1183 4.74357L 15.1192 5.94357C 15.9695 5.93542 16.7102 6.17714 17.392 6.68519L 18.1006 5.71669ZM 15.1187 4.74357L 13.9988 4.74357L 13.9988 5.94357L 15.1187 5.94357L 15.1187 4.74357ZM 14.5799 5.19445C 14.2921 4.08802 13.7298 3.00021 12.9935 2.12556L 12.0781 2.9014C 12.7327 3.66791 13.1708 4.51539 13.4176 5.4927L 14.5799 5.19445ZM 12.9935 2.12556C 12.2515 1.25586 11.2706 0.522762 10.2263 0.0573639L 9.74152 1.15506C 10.6651 1.55881 11.4293 2.12995 12.0781 2.9014L 12.9935 2.12556ZM 10.2263 0.0573639C 9.17901 -0.401038 7.97649 -0.632284 6.83383 -0.595018L 6.87696 0.604207C 7.88416 0.564159 8.82101 0.744317 9.74152 1.15506L 10.2263 0.0573639ZM 6.83383 -0.595018C 5.69145 -0.55011 4.50865 -0.233083 3.49694 0.299365L 4.05937 1.3594C 4.94799 0.883597 5.86949 0.63661 6.87696 0.604207L 6.83383 -0.595018ZM 3.49694 0.299365C 2.48883 0.838569 1.56315 1.64023 0.88547 2.56099L 1.8543 3.26907C 2.44599 2.45301 3.16715 1.82845 4.05937 1.3594L 3.49694 0.299365ZM 0.88547 2.56099C 0.213964 3.48626 -0.268772 4.61165 -0.476406 5.7359L 0.70436 5.94989C 0.880346 4.95738 1.25643 4.08061 1.8543 3.26907L 0.88547 2.56099ZM -0.476406 5.7359C -0.676514 6.86151 -0.619416 8.08473 -0.315325 9.18681L 0.840373 8.86376C 0.565331 7.89402 0.520848 6.94104 0.70436 5.94989L -0.476406 5.7359ZM -0.315325 9.18681C -0.00386792 10.2868 0.581602 11.3624 1.33638 12.2211L 2.23504 11.4258C 1.56417 10.6735 1.10805 9.83556 0.840373 8.86376L -0.315325 9.18681Z"/>
</defs>
</svg>
