<svg width="18" height="14" viewBox="0 0 18 14" version="1.1" xmlns="http://www.w3.org/2000/svg" xmlns:xlink="http://www.w3.org/1999/xlink">
<title>path9</title>
<desc>Created using Figma</desc>
<g id="Canvas" transform="translate(-514 594)">
<g id="path9">
<use xlink:href="#path0_fill" transform="matrix(1.32117 0 0 -1.32117 514 -580)" fill="#D61920" fill-opacity="0.8"/>
</g>
</g>
<defs>
<path id="path0_fill" d="M 4.04773 3.77926L 4.85512 4.62598L 4.211 5.2981L 4.85512 5.9721L 4.04773 6.81694L 3.40361 6.14482C 3.40361 6.14482 3.17395 6.38513 2.97838 6.58977C 2.29658 7.30319 1.19135 7.30319 0.509554 6.58977C 0.17045 6.23306 2.73774e-08 5.76558 2.73774e-08 5.2981C 2.73774e-08 4.83062 0.17045 4.36502 0.509554 4.00831C 1.19135 3.29488 2.29658 3.29488 2.97838 4.00831C 3.17395 4.21107 3.40361 4.45326 3.40361 4.45326L 4.04773 3.77926ZM 2.16919 4.85315C 1.93415 4.60908 1.55378 4.60908 1.31874 4.85315C 1.20212 4.97706 1.14291 5.13664 1.14291 5.2981C 1.14291 5.45956 1.20212 5.62102 1.31874 5.74305C 1.55378 5.98899 1.93415 5.98899 2.16919 5.74305C 2.36117 5.54404 2.59442 5.2981 2.59442 5.2981C 2.59442 5.2981 2.36117 5.05403 2.16919 4.85315ZM 12.9201 6.58977C 12.2383 7.30319 11.1259 7.30319 10.4441 6.58977C 10.2467 6.38513 10.0224 6.14482 10.0224 6.14482L 9.38011 6.81694L 8.57092 5.9721L 9.21504 5.2981L 8.57092 4.62598L 9.38011 3.77926L 10.0224 4.45326C 10.0224 4.45326 10.2467 4.21107 10.4441 4.00831C 11.1259 3.29488 12.2383 3.29488 12.9201 4.00831C 13.261 4.36502 13.4224 4.83062 13.4224 5.2981C 13.4224 5.76558 13.261 6.23306 12.9201 6.58977ZM 12.1127 4.85315C 11.8794 4.60908 11.4847 4.60908 11.2515 4.85315C 11.072 5.05403 10.8388 5.2981 10.8388 5.2981C 10.8388 5.2981 11.072 5.54404 11.2515 5.74305C 11.4847 5.98899 11.8794 5.98899 12.1127 5.74305C 12.2203 5.62102 12.2742 5.45956 12.2742 5.2981C 12.2742 5.13664 12.2203 4.97706 12.1127 4.85315ZM 7.53028 5.2981C 7.53028 5.2981 9.42496 7.28254 9.61515 7.47967C 10.3005 8.19309 10.3005 9.34959 9.61515 10.063C 8.93335 10.7746 7.82812 10.7746 7.14632 10.063C 6.87898 9.78327 6.72289 9.61806 6.72289 9.61806C 6.72289 9.61806 6.5632 9.78327 6.29766 10.063C 5.61407 10.7746 4.51063 10.7746 3.82883 10.063C 3.14704 9.34959 3.14704 8.19309 3.82883 7.47967C 4.01723 7.28254 5.9137 5.2981 5.9137 5.2981C 5.9137 5.2981 4.01723 3.31554 3.82883 3.11841C 3.14704 2.40498 3.14704 1.24849 3.82883 0.535067C 4.51063 -0.178356 5.61407 -0.178356 6.29766 0.535067C 6.5632 0.814803 6.72289 0.980017 6.72289 0.980017C 6.72289 0.980017 6.87898 0.814803 7.14632 0.535067C 7.82812 -0.178356 8.93335 -0.178356 9.61515 0.535067C 10.3005 1.24849 10.3005 2.40498 9.61515 3.11841C 9.42496 3.31554 7.53028 5.2981 7.53028 5.2981ZM 4.63802 8.32639C 4.40298 8.57233 4.40298 8.97035 4.63802 9.21629C 4.87127 9.46223 5.25343 9.46223 5.48847 9.21629C 5.71454 8.97974 5.9137 8.77134 5.9137 8.77134L 5.26958 8.09734L 6.07877 7.2525L 6.72289 7.92462L 7.36521 7.2525L 8.1744 8.09734L 7.53028 8.77134C 7.53028 8.77134 7.72944 8.97974 7.95551 9.21629C 8.19055 9.46223 8.57092 9.46223 8.80596 9.21629C 9.041 8.97035 9.041 8.57233 8.80596 8.32639C 8.56015 8.0673 6.71392 6.13543 6.71392 6.13543C 6.71392 6.13543 4.88383 8.0673 4.63802 8.32639ZM 8.80596 1.38179C 8.57092 1.13584 8.19055 1.13584 7.95551 1.38179C 7.72944 1.61834 7.53028 1.82674 7.53028 1.82674L 8.1744 2.50073L 7.36521 3.34558L 6.72289 2.67346L 6.07877 3.34558L 5.26958 2.50073L 5.9137 1.82674C 5.9137 1.82674 5.71454 1.61834 5.48847 1.38179C 5.25343 1.13584 4.87127 1.13584 4.63802 1.38179C 4.40298 1.62773 4.40298 2.02574 4.63802 2.27169C 4.88383 2.52889 6.71392 4.46264 6.71392 4.46264C 6.71392 4.46264 8.56015 2.52889 8.80596 2.27169C 9.041 2.02574 9.041 1.62773 8.80596 1.38179Z"/>
</defs>
</svg>
